# xmcd
#
# Track frame offsets: 
#        150
#        15677
#        37503
#        61353
#        81404
#        143380
#
# Disc length: 2245 seconds
#
# Revision: 0
# Processed by: cddbd v1.5.2PL0 Copyright (c) Steve Scherf et al.
# Submitted via: ExactAudioCopy v0.95a5
#
DISCID=3d08c306
DTITLE=Carolyne Mas - Mas Hysteria
DYEAR=1900
DGENRE=New Age
TTITLE0=Hold On
TTITLE1=Stay True
TTITLE2=Thomas Dunson´s Revenge
TTITLE3=Running From The High Life
TTITLE4=Sittinín The Dark
TTITLE5=Quote Goodbye Quote
EXTD=
EXTT0=
EXTT1=
EXTT2=
EXTT3=
EXTT4=
EXTT5=
PLAYORDER=
